<svg width="13" height="10" viewBox="0 0 13 10" fill="none" xmlns="http://www.w3.org/2000/svg">
    <path
        d="M3.01973 4.55105C1.69934 4.55105 0.808073 3.63193 0.808073 2.27028C0.808073 1.04479 1.83138 0.0235443 3.21779 0.0235443C4.73624 0.0235443 5.85858 1.24903 5.85858 3.12131C5.85858 7.37649 2.75565 9.07856 0.808073 9.28281V7.41053C2.12847 7.17224 3.61391 5.84462 3.67993 4.38084C3.61391 4.41489 3.34983 4.55105 3.01973 4.55105Z"
        fill="#79819A" />
    <path
        d="M9.75374 4.55105C8.43334 4.55105 7.54208 3.63193 7.54208 2.27028C7.54208 1.04479 8.56538 0.0235443 9.9518 0.0235443C11.4702 0.0235443 12.5926 1.24903 12.5926 3.12131C12.5926 7.37649 9.48966 9.07856 7.54208 9.28281V7.41053C8.86247 7.17224 10.3479 5.84462 10.4139 4.38084C10.3479 4.41489 10.0838 4.55105 9.75374 4.55105Z"
        fill="#79819A" />
</svg>