<svg width="13" height="10" viewBox="0 0 13 10" fill="none" xmlns="http://www.w3.org/2000/svg">
    <path
        d="M10.2665 5.12568C11.5869 5.12568 12.4781 6.04479 12.4781 7.40645C12.4781 8.63194 11.4548 9.65318 10.0684 9.65318C8.54996 9.65318 7.42762 8.42769 7.42762 6.55542C7.42762 2.30024 10.5305 0.598171 12.4781 0.393921L12.4781 2.2662C11.1577 2.50449 9.67229 3.8321 9.60627 5.29589C9.67229 5.26184 9.93637 5.12568 10.2665 5.12568Z"
        fill="#79819A" />
    <path
        d="M3.53246 5.12568C4.85286 5.12568 5.74412 6.04479 5.74412 7.40645C5.74412 8.63194 4.72082 9.65318 3.3344 9.65318C1.81595 9.65318 0.693619 8.42769 0.693619 6.55542C0.693618 2.30024 3.79654 0.598171 5.74412 0.393921V2.2662C4.42373 2.50449 2.93829 3.8321 2.87227 5.29589C2.93829 5.26184 3.20237 5.12568 3.53246 5.12568Z"
        fill="#79819A" />
</svg>